<svg xmlns="http://www.w3.org/2000/svg" width="25.5" height="28.5" viewBox="0 0 25.5 28.5">
  <g id="Bell_Icon" data-name="Bell Icon" transform="translate(-1869.812 -36.961)">
    <path id="Icon_awesome-bell" data-name="Icon awesome-bell" d="M12,27a3.4,3.4,0,0,0,3.427-3.375H8.573A3.4,3.4,0,0,0,12,27Zm11.539-7.895c-1.035-1.095-2.972-2.742-2.972-8.136a8.363,8.363,0,0,0-6.854-8.182v-1.1a1.713,1.713,0,0,0-3.426,0v1.1a8.363,8.363,0,0,0-6.854,8.182c0,5.395-1.937,7.042-2.972,8.136A1.634,1.634,0,0,0,0,20.25a1.7,1.7,0,0,0,1.72,1.688H22.28A1.7,1.7,0,0,0,24,20.25a1.633,1.633,0,0,0-.461-1.145Z" transform="translate(1870.563 37.711)" fill="none" stroke="#7966ff" stroke-width="1.5"/>
    <g id="Ellipse_16" data-name="Ellipse 16" transform="translate(1886.587 40.711)" fill="rgba(255,0,0,0.69)" stroke="#f8f8f8" stroke-width="1">
      <circle cx="3" cy="3" r="3" stroke="none"/>
      <circle cx="3" cy="3" r="2.5" fill="none"/>
    </g>
  </g>
</svg>
