<svg xmlns="http://www.w3.org/2000/svg" xmlns:xlink="http://www.w3.org/1999/xlink" width="90.243" height="52" viewBox="0 0 90.243 52">
  <defs>
    <linearGradient id="linear-gradient" x1="0.214" y1="1.044" x2="1" y2="0.102" gradientUnits="objectBoundingBox">
      <stop offset="0" stop-color="#ab3aff"/>
      <stop offset="0.51" stop-color="#934fff"/>
      <stop offset="1" stop-color="#7966ff"/>
    </linearGradient>
  </defs>
  <g id="Home_Button" data-name="Home Button" transform="translate(-804.193 -57.032)">
    <path id="Path_72" data-name="Path 72" d="M1353.678,510.4V526h53.843V510.4a36.4,36.4,0,0,0-36.4-36.4h-53.843A36.4,36.4,0,0,1,1353.678,510.4Z" transform="translate(-513.085 -416.968)" fill="url(#linear-gradient)"/>
    <g id="Floey_Logo_Black" data-name="Floey Logo Black" transform="translate(862.656 69.729)">
      <path id="Path_90" data-name="Path 90" d="M528.12,533.53" transform="translate(-522.118 -509.006)" fill="#fff"/>
      <path id="Path_91" data-name="Path 91" d="M454.1,217.747a1.158,1.158,0,0,0-.293-.6,1.219,1.219,0,0,0-.173-.153,3.458,3.458,0,0,0-1.131-.505,5.675,5.675,0,0,0-1.327-.2c-.074,0-.149,0-.223,0a5.5,5.5,0,0,0-2.2.442,5.681,5.681,0,0,0-1.788,1.2,5.95,5.95,0,0,0-1.219,1.773,5.524,5.524,0,0,0-.49,2.147v16.046a1.171,1.171,0,1,0,2.342,0V227.636H450.5a1.153,1.153,0,0,0,.819-.332,1.075,1.075,0,0,0,.349-.807,1.11,1.11,0,0,0-.349-.839,1.152,1.152,0,0,0-.819-.332H447.6v-3.671a3.337,3.337,0,0,1,1.076-2.184,3.225,3.225,0,0,1,2.278-.886,3.394,3.394,0,0,1,.882.117,3.7,3.7,0,0,1,.629.267,1.159,1.159,0,0,0,.657.1,1.073,1.073,0,0,0,.759-.447,1.117,1.117,0,0,0,.22-.874" transform="translate(-446.26 -211.23)" fill="#fff"/>
    </g>
  </g>
</svg>
