<svg
        xmlns="http://www.w3.org/2000/svg"
        width="61.915"
        height="34.594"
        viewBox="0 0 61.915 34.594">
        <g
          id="Floey_Logo_Black"
          data-name="Floey Logo Black"
          transform="translate(0 -0.048)">
          <path
            id="Path_90"
            data-name="Path 90"
            d="M528.12,533.53"
            transform="translate(-520.689 -505.028)"
            fill="#fff"
          />
          <path
            id="Path_91"
            data-name="Path 91"
            d="M455.909,218.047a1.394,1.394,0,0,0-.352-.725,1.471,1.471,0,0,0-.208-.185,4.165,4.165,0,0,0-1.362-.608,6.834,6.834,0,0,0-1.6-.247c-.09,0-.179,0-.269,0a6.628,6.628,0,0,0-2.648.533,6.84,6.84,0,0,0-2.153,1.448,7.164,7.164,0,0,0-1.468,2.135,6.652,6.652,0,0,0-.59,2.586V242.3a1.41,1.41,0,1,0,2.82,0V229.955h3.485a1.388,1.388,0,0,0,.987-.4,1.294,1.294,0,0,0,.42-.972,1.337,1.337,0,0,0-.42-1.01,1.387,1.387,0,0,0-.987-.4H448.08v-4.421a4.018,4.018,0,0,1,1.3-2.63,3.883,3.883,0,0,1,2.743-1.067,4.086,4.086,0,0,1,1.062.141,4.46,4.46,0,0,1,.758.321,1.4,1.4,0,0,0,.791.121,1.292,1.292,0,0,0,.914-.538,1.345,1.345,0,0,0,.266-1.053"
            transform="translate(-445.26 -216.23)"
            fill="#fff"
          />
          <path
            id="Path_92"
            data-name="Path 92"
            d="M563.38,302.883V284.238a1.418,1.418,0,1,1,2.836,0v18.645a1.418,1.418,0,1,1-2.836,0Z"
            transform="translate(-552.786 -276.804)"
            fill="#fff"
          />
          <path
            id="Path_93"
            data-name="Path 93"
            d="M625.94,369.029a7.189,7.189,0,1,1,7.189,7.189,7.189,7.189,0,0,1-7.189-7.189Zm2.836,0a4.353,4.353,0,1,0,4.353-4.353A4.353,4.353,0,0,0,628.776,369.029Z"
            transform="translate(-609.735 -348.737)"
            fill="#fff"
          />
          <path
            id="Path_94"
            data-name="Path 94"
            d="M832.2,369.034a1.412,1.412,0,0,1-1.435,1.4h-9.877a4.364,4.364,0,0,0,4.126,2.95,5.623,5.623,0,0,0,3.206-.945,1.369,1.369,0,0,1,1.89.659,1.489,1.489,0,0,1-.687,1.89,7.015,7.015,0,0,1-4.411,1.232,7.189,7.189,0,1,1,0-14.378A7.056,7.056,0,0,1,832.2,369.034ZM820.885,367.6h8.276a4.189,4.189,0,0,0-4.153-2.921A4.377,4.377,0,0,0,820.885,367.6Z"
            transform="translate(-784.406 -348.741)"
            fill="#fff"
          />
          <path
            id="Path_95"
            data-name="Path 95"
            d="M1018.457,364.768v14.12a5.913,5.913,0,0,1-11.227,2.581,1.408,1.408,0,0,1,.659-1.891,1.392,1.392,0,0,1,1.862.659,3.116,3.116,0,0,0,2.78,1.717,3.073,3.073,0,0,0,3.1-3.067v-2.063a5.689,5.689,0,0,1-2.95.8,5.764,5.764,0,0,1-5.757-5.7v-7.161a1.4,1.4,0,0,1,2.806,0v7.1a2.95,2.95,0,1,0,5.9,0v-7.1a1.418,1.418,0,0,1,2.835,0Z"
            transform="translate(-956.546 -350.146)"
            fill="#fff"
          />
        </g>
      </svg>