<svg xmlns="http://www.w3.org/2000/svg" width="86.922" height="91.947" viewBox="0 0 86.922 91.947">
  <path id="Icon_awesome-running" data-name="Icon awesome-running" d="M28.348,10.742a5.2,5.2,0,0,0,5-5.371,5.2,5.2,0,0,0-5-5.371,5.2,5.2,0,0,0-5,5.371A5.2,5.2,0,0,0,28.348,10.742Zm-16.5,24.781-1.542,3.862H3.335a3.59,3.59,0,0,0,0,7.161h8.072A5,5,0,0,0,16,43.291l.916-2.3-1.112-.7A10.445,10.445,0,0,1,11.849,35.522Zm28.172-10.46H35.432L32.716,19.1a10.2,10.2,0,0,0-6.439-5.7l-7.408-2.365a9.434,9.434,0,0,0-8.425,1.918L6.31,16.36a3.755,3.755,0,0,0-.617,5.019,3.186,3.186,0,0,0,4.675.662l4.137-3.4a3.078,3.078,0,0,1,2.634-.687l1.532.489-3.9,9.778A7.457,7.457,0,0,0,17.507,37.2l8.857,5.614L23.5,52.635a3.636,3.636,0,0,0,2.186,4.486,3.122,3.122,0,0,0,1,.166,3.372,3.372,0,0,0,3.181-2.512l3.3-11.308a5.575,5.575,0,0,0-2.255-6.086l-6.382-4.044,3.263-8.759L29.9,29.214a5.013,5.013,0,0,0,4.493,3.009h5.627a3.589,3.589,0,0,0,0-7.16Z" transform="translate(21.783 19.577)" fill="#fff"/>
  <path id="Union_3" data-name="Union 3" d="M17825,18491.1c0-25.117,19.234-45.479,42.961-45.475s42.961,20.357,42.961,45.475-19.236,45.473-42.961,45.473S17825,18516.213,17825,18491.1Zm77.256,0c0-20.051-15.352-36.3-34.295-36.3s-34.295,16.254-34.295,36.3,15.355,36.3,34.295,36.295S17902.256,18511.146,17902.256,18491.1Z" transform="translate(-17824.5 -18445.127)" fill="#fff" stroke="rgba(0,0,0,0)" stroke-miterlimit="10" stroke-width="1"/>
</svg>
