<svg xmlns="http://www.w3.org/2000/svg" width="43.356" height="57.286" viewBox="0 0 43.356 57.286">
  <path id="Icon_awesome-running" data-name="Icon awesome-running" d="M28.348,10.742a5.2,5.2,0,0,0,5-5.371,5.2,5.2,0,0,0-5-5.371,5.2,5.2,0,0,0-5,5.371A5.2,5.2,0,0,0,28.348,10.742Zm-16.5,24.781-1.542,3.862H3.335a3.59,3.59,0,0,0,0,7.161h8.072A5,5,0,0,0,16,43.291l.916-2.3-1.112-.7A10.445,10.445,0,0,1,11.849,35.522Zm28.172-10.46H35.432L32.716,19.1a10.2,10.2,0,0,0-6.439-5.7l-7.408-2.365a9.434,9.434,0,0,0-8.425,1.918L6.31,16.36a3.755,3.755,0,0,0-.617,5.019,3.186,3.186,0,0,0,4.675.662l4.137-3.4a3.078,3.078,0,0,1,2.634-.687l1.532.489-3.9,9.778A7.457,7.457,0,0,0,17.507,37.2l8.857,5.614L23.5,52.635a3.636,3.636,0,0,0,2.186,4.486,3.122,3.122,0,0,0,1,.166,3.372,3.372,0,0,0,3.181-2.512l3.3-11.308a5.575,5.575,0,0,0-2.255-6.086l-6.382-4.044,3.263-8.759L29.9,29.214a5.013,5.013,0,0,0,4.493,3.009h5.627a3.589,3.589,0,0,0,0-7.16Z" fill="#fff"/>
</svg>
