<svg xmlns="http://www.w3.org/2000/svg" width="16" height="15.014" viewBox="0 0 16 15.014">
  <path id="Path_8" data-name="Path 8" d="M14,11.25A14.37,14.37,0,0,0,9.48,9.19a10.46,10.46,0,0,0,1.38-2.75A6.27,6.27,0,0,0,11,4.38a9.15,9.15,0,0,0,0-2.1A2.77,2.77,0,0,0,8,0,2.78,2.78,0,0,0,5,2.28a10.47,10.47,0,0,0,0,2.1,5.34,5.34,0,0,0,.22,2.06A9.13,9.13,0,0,0,6.48,9.19,14.77,14.77,0,0,0,2,11.25c-2,.94-2,2-2,2v.4A1.54,1.54,0,0,0,1.46,15H14.52A1.46,1.46,0,0,0,16,13.57v-.34S16,12.19,14,11.25Z" transform="translate(0 0.013)" fill="#7966ff" fill-rule="evenodd"/>
</svg>
